<?xml version="1.0" encoding="UTF-8"?>
<svg version="1.1" xmlns="http://www.w3.org/2000/svg" width="256" height="256">
<path d="M0 0 C84.48 0 168.96 0 256 0 C256 84.48 256 168.96 256 256 C171.52 256 87.04 256 0 256 C0 171.52 0 87.04 0 0 Z " fill="#FDFDFD" transform="translate(0,0)"/>
<path d="M0 0 C38.61 0 77.22 0 117 0 C117 8.58 117 17.16 117 26 C78.39 26 39.78 26 0 26 C0 17.42 0 8.84 0 0 Z " fill="#323232" transform="translate(33,153)"/>
<path d="M0 0 C0.80469223 -0.00241196 1.60938446 -0.00482391 2.4384613 -0.00730896 C4.13374782 -0.00633247 5.829067 0.00701417 7.52416992 0.03198242 C10.11682434 0.06634966 12.70607882 0.05261987 15.29882812 0.03320312 C16.94923323 0.04010054 18.59962956 0.04977199 20.25 0.0625 C21.40949913 0.0550602 21.40949913 0.0550602 22.59242249 0.04747009 C26.03450841 0.12272617 28.1840917 0.37018677 31.046875 2.34790039 C32.82798092 5.03537982 33.06147026 6.48758611 33.0546875 9.69140625 C33.05533203 10.65304688 33.05597656 11.6146875 33.05664062 12.60546875 C33.03666016 13.60320312 33.01667969 14.6009375 32.99609375 15.62890625 C33.00318359 16.62664062 33.01027344 17.624375 33.01757812 18.65234375 C32.94424684 27.06851941 32.94424684 27.06851941 29.55859375 30.62890625 C25.9953535 31.816653 22.71564846 31.82870768 19.00390625 31.8671875 C18.26534393 31.87525925 17.52678162 31.88333099 16.76583862 31.89164734 C15.20410494 31.90546498 13.64234136 31.9161975 12.08056641 31.92407227 C10.48607517 31.93560301 8.89162287 31.95607238 7.29736328 31.9855957 C4.9909447 32.02830716 2.68567138 32.0444442 0.37890625 32.0546875 C-0.32958466 32.07219559 -1.03807556 32.08970367 -1.76803589 32.10774231 C-5.38151743 32.09197915 -7.30797378 31.7156162 -10.36767578 29.72729492 C-14.44238618 25.60413318 -13.73081908 21.33677878 -13.81640625 15.81640625 C-13.85378906 14.91341797 -13.89117187 14.01042969 -13.9296875 13.08007812 C-13.94128906 12.20287109 -13.95289063 11.32566406 -13.96484375 10.421875 C-13.98466309 9.62289795 -14.00448242 8.8239209 -14.02490234 8.00073242 C-12.23445128 0.72281106 -6.54216696 -0.11250351 0 0 Z " fill="#343434" transform="translate(187.44140625,76.37109375)"/>
<path d="M0 0 C4.33125 -0.12375 4.33125 -0.12375 8.75 -0.25 C9.65331055 -0.28641602 10.55662109 -0.32283203 11.48730469 -0.36035156 C17.39246106 -0.44218431 17.39246106 -0.44218431 20.5546875 1.859375 C22.35359401 4.52370139 22.4738407 5.84106201 22 9 C21 11.3125 21 11.3125 20 13 C20.66 13.66 21.32 14.32 22 15 C22.44516514 18.41293273 22.47897083 20.27766021 20.5546875 23.1796875 C16.73692488 25.89998931 13.3056113 25.43365468 8.75 25.25 C5.8625 25.1675 2.975 25.085 0 25 C0 16.75 0 8.5 0 0 Z " fill="#2C2C2C" transform="translate(84,117)"/>
<path d="M0 0 C2.97 0 5.94 0 9 0 C9.67305018 1.60149886 10.33822227 3.20631029 11 4.8125 C11.37125 5.70582031 11.7425 6.59914063 12.125 7.51953125 C13 10 13 10 13 13 C13.66 13 14.32 13 15 13 C15.12117188 12.39671875 15.24234375 11.7934375 15.3671875 11.171875 C15.53476563 10.37265625 15.70234375 9.5734375 15.875 8.75 C16.03742188 7.96109375 16.19984375 7.1721875 16.3671875 6.359375 C17 4 17 4 19 0 C21.97 0 24.94 0 28 0 C28 8.25 28 16.5 28 25 C26.02 25 24.04 25 22 25 C21.67 20.38 21.34 15.76 21 11 C20.2575 13.124375 19.515 15.24875 18.75 17.4375 C17.484375 21.05859375 17.484375 21.05859375 16 24 C14.68 24.33 13.36 24.66 12 25 C10.35 20.71 8.7 16.42 7 12 C6.67 16.29 6.34 20.58 6 25 C4.02 25 2.04 25 0 25 C0 16.75 0 8.5 0 0 Z " fill="#851B1B" transform="translate(63,80)"/>
<path d="M0 0 C2.7225 -0.0825 5.445 -0.165 8.25 -0.25 C9.10110352 -0.28641602 9.95220703 -0.32283203 10.82910156 -0.36035156 C14.53032928 -0.41470403 16.41434031 -0.42292536 19.48828125 1.796875 C21.60970915 4.88856838 21.93350744 7.27641671 22 11 C20.6875 13.4375 20.6875 13.4375 19 15 C18.34 15 17.68 15 17 15 C17.28875 15.55429688 17.5775 16.10859375 17.875 16.6796875 C18.431875 17.76636719 18.431875 17.76636719 19 18.875 C19.37125 19.59429687 19.7425 20.31359375 20.125 21.0546875 C21 23 21 23 21 25 C18.69 25 16.38 25 14 25 C11 19.25 11 19.25 11 17 C9.68 17 8.36 17 7 17 C7 19.64 7 22.28 7 25 C4.69 25 2.38 25 0 25 C0 16.75 0 8.5 0 0 Z " fill="#3C3C3C" transform="translate(132,117)"/>
<path d="M0 0 C2.97 0 5.94 0 9 0 C18 21.1352459 18 21.1352459 18 25 C15.69 25 13.38 25 11 25 C10.67 24.34 10.34 23.68 10 23 C7.41394668 22.5316735 7.41394668 22.5316735 4.4375 22.375 C3.42558594 22.30023438 2.41367188 22.22546875 1.37109375 22.1484375 C0.19740234 22.07496094 0.19740234 22.07496094 -1 22 C-1 22.99 -1 23.98 -1 25 C-3.64 25 -6.28 25 -9 25 C-7.87685891 21.77018378 -6.75115766 18.54126553 -5.625 15.3125 C-5.14933594 13.94448242 -5.14933594 13.94448242 -4.6640625 12.54882812 C-4.3546875 11.66259766 -4.0453125 10.77636719 -3.7265625 9.86328125 C-3.44377441 9.05157471 -3.16098633 8.23986816 -2.86962891 7.40356445 C-1.96803802 4.91166039 -0.99728271 2.45499672 0 0 Z " fill="#821717" transform="translate(102,80)"/>
<path d="M0 0 C6.27 0 12.54 0 19 0 C19 1.65 19 3.3 19 5 C15.04 5 11.08 5 7 5 C7 6.32 7 7.64 7 9 C10.96 9 14.92 9 19 9 C19 10.98 19 12.96 19 15 C15.04 15 11.08 15 7 15 C7 16.32 7 17.64 7 19 C10.96 19 14.92 19 19 19 C19 20.98 19 22.96 19 25 C12.73 25 6.46 25 0 25 C0 16.75 0 8.5 0 0 Z " fill="#484848" transform="translate(180,117)"/>
<path d="M0 0 C2.31 0 4.62 0 7 0 C7.06058594 1.28777344 7.12117188 2.57554688 7.18359375 3.90234375 C7.26798247 5.58074159 7.3526313 7.25912636 7.4375 8.9375 C7.47681641 9.78763672 7.51613281 10.63777344 7.55664062 11.51367188 C7.59853516 12.32255859 7.64042969 13.13144531 7.68359375 13.96484375 C7.72025146 14.7137085 7.75690918 15.46257324 7.79467773 16.23413086 C7.81771063 18.02461326 7.81771063 18.02461326 9 19 C12 19.16666667 12 19.16666667 15 19 C16.51421001 17.48578999 16.21309856 16.07527232 16.31640625 13.96484375 C16.35830078 13.15595703 16.40019531 12.34707031 16.44335938 11.51367188 C16.48267578 10.66353516 16.52199219 9.81339844 16.5625 8.9375 C16.60568359 8.08349609 16.64886719 7.22949219 16.69335938 6.34960938 C16.79976702 4.23327963 16.90041731 2.11666187 17 0 C19.31 0 21.62 0 24 0 C24.08120751 2.89640118 24.14059421 5.79050912 24.1875 8.6875 C24.21263672 9.50412109 24.23777344 10.32074219 24.26367188 11.16210938 C24.32173421 15.9425753 24.16104605 19.14632382 21 23 C16.34186237 26.10542508 11.45168836 25.74307763 6 25 C3.02638914 22.78436838 1.63040207 21.26080415 0 18 C-0.08308638 16.62451844 -0.10736016 15.24514204 -0.09765625 13.8671875 C-0.09443359 13.06152344 -0.09121094 12.25585938 -0.08789062 11.42578125 C-0.07951172 10.58402344 -0.07113281 9.74226563 -0.0625 8.875 C-0.05798828 8.02550781 -0.05347656 7.17601563 -0.04882812 6.30078125 C-0.03702874 4.20049091 -0.01909306 2.1002367 0 0 Z " fill="#881D1E" transform="translate(34,80)"/>
<path d="M0 0 C1.40765625 0.00580078 1.40765625 0.00580078 2.84375 0.01171875 C5.52087334 0.3148636 7.19965635 0.95073996 9.5 2.3125 C8.84 3.9625 8.18 5.6125 7.5 7.3125 C4.2 6.9825 0.9 6.6525 -2.5 6.3125 C-2.83 6.9725 -3.16 7.6325 -3.5 8.3125 C-2.283125 8.415625 -1.06625 8.51875 0.1875 8.625 C3.91390245 9.08749676 6.45879456 10.00855648 9.5 12.3125 C10.94430855 15.20111709 10.87688506 17.10897701 10.5 20.3125 C8.75 23.1875 8.75 23.1875 5.5 25.3125 C0.50755658 26.03446317 -4.51252608 26.59600869 -8.87109375 23.78125 C-9.40863281 23.2965625 -9.94617188 22.811875 -10.5 22.3125 C-9.84 20.6625 -9.18 19.0125 -8.5 17.3125 C-7.613125 17.6425 -6.72625 17.9725 -5.8125 18.3125 C-2.79076653 19.22472143 -0.61626294 19.49580958 2.5 19.3125 C2.5 18.6525 2.5 17.9925 2.5 17.3125 C1.34371094 16.93158203 1.34371094 16.93158203 0.1640625 16.54296875 C-0.83882812 16.19878906 -1.84171875 15.85460937 -2.875 15.5 C-3.87273437 15.16355469 -4.87046875 14.82710937 -5.8984375 14.48046875 C-8.5 13.3125 -8.5 13.3125 -10.5 10.3125 C-10.27758052 4.08475463 -10.27758052 4.08475463 -7.7890625 1.61328125 C-4.99254592 0.02413445 -3.19973398 -0.05713811 0 0 Z " fill="#3A3A3A" transform="translate(166.5,116.6875)"/>
<path d="M0 0 C1.40765625 0.00580078 1.40765625 0.00580078 2.84375 0.01171875 C5.52087334 0.3148636 7.19965635 0.95073996 9.5 2.3125 C8.84 3.9625 8.18 5.6125 7.5 7.3125 C4.2 6.9825 0.9 6.6525 -2.5 6.3125 C-2.5 6.9725 -2.5 7.6325 -2.5 8.3125 C-1.81292969 8.49425781 -1.12585938 8.67601563 -0.41796875 8.86328125 C0.48308594 9.11464844 1.38414062 9.36601563 2.3125 9.625 C3.20582031 9.86863281 4.09914062 10.11226562 5.01953125 10.36328125 C7.59551521 11.34905149 8.83365182 12.13923684 10.5 14.3125 C11.17051907 18.16798465 10.79150589 19.83359747 8.75 23.1875 C3.94617245 26.32846417 -0.90257363 26.23642182 -6.5 25.3125 C-8.87109375 23.78125 -8.87109375 23.78125 -10.5 22.3125 C-9.84 20.6625 -9.18 19.0125 -8.5 17.3125 C-7.613125 17.6425 -6.72625 17.9725 -5.8125 18.3125 C-2.79076653 19.22472143 -0.61626294 19.49580958 2.5 19.3125 C2.83 18.6525 3.16 17.9925 3.5 17.3125 C2.74074219 17.14234375 1.98148438 16.9721875 1.19921875 16.796875 C0.20535156 16.55453125 -0.78851563 16.3121875 -1.8125 16.0625 C-3.29169922 15.71445313 -3.29169922 15.71445313 -4.80078125 15.359375 C-7.89770099 14.15825417 -8.93456953 13.21283523 -10.5 10.3125 C-10.39267559 4.19500844 -10.39267559 4.19500844 -7.78515625 1.6171875 C-4.99050391 0.02160822 -3.2010566 -0.05716172 0 0 Z " fill="#871C1E" transform="translate(154.5,79.6875)"/>
<path d="M0 0 C1.40765625 0.00580078 1.40765625 0.00580078 2.84375 0.01171875 C5.52087334 0.3148636 7.19965635 0.95073996 9.5 2.3125 C8.84 3.9625 8.18 5.6125 7.5 7.3125 C3.87 6.6525 0.24 5.9925 -3.5 5.3125 C-3.17 6.3025 -2.84 7.2925 -2.5 8.3125 C-0.26763884 9.23099826 -0.26763884 9.23099826 2.375 9.8125 C5.94570175 10.68695757 8.22418699 11.33191909 10.5 14.3125 C11.17051907 18.16798465 10.79150589 19.83359747 8.75 23.1875 C3.90926496 26.35259599 -0.86142069 26.04931573 -6.5 25.3125 C-8.87109375 24.28515625 -8.87109375 24.28515625 -10.5 23.3125 C-9.99396008 21.14375748 -9.50016187 19.31282373 -8.5 17.3125 C-7.79875 17.6425 -7.0975 17.9725 -6.375 18.3125 C-3.23996884 19.40294562 -0.79436818 19.46572643 2.5 19.3125 C2.5 18.6525 2.5 17.9925 2.5 17.3125 C1.81292969 17.14234375 1.12585938 16.9721875 0.41796875 16.796875 C-0.48308594 16.55453125 -1.38414062 16.3121875 -2.3125 16.0625 C-3.65248047 15.71445313 -3.65248047 15.71445313 -5.01953125 15.359375 C-7.93679814 14.12815055 -8.97414779 13.06412015 -10.5 10.3125 C-10.39267559 4.19500844 -10.39267559 4.19500844 -7.78515625 1.6171875 C-4.99050391 0.02160822 -3.2010566 -0.05716172 0 0 Z " fill="#821A19" transform="translate(131.5,79.6875)"/>
<path d="M0 0 C5.94 0 11.88 0 18 0 C18 1.65 18 3.3 18 5 C14.04 5 10.08 5 6 5 C6 6.65 6 8.3 6 10 C9.96 10 13.92 10 18 10 C18 11.65 18 13.3 18 15 C14.04 15 10.08 15 6 15 C6 16.32 6 17.64 6 19 C10.29 19 14.58 19 19 19 C19 20.98 19 22.96 19 25 C12.73 25 6.46 25 0 25 C0 16.75 0 8.5 0 0 Z " fill="#242424" transform="translate(110,117)"/>
<path d="M0 0 C3.13150836 1.36152537 4.55823799 2.26372999 6.3125 5.1875 C6.539375 5.785625 6.76625 6.38375 7 7 C4.6875 8.125 4.6875 8.125 2 9 C1.01 8.34 0.02 7.68 -1 7 C-4.04195427 6.66659529 -4.04195427 6.66659529 -7 7 C-9.15705515 8.7564331 -9.15705515 8.7564331 -9.265625 10.875 C-9.26046875 11.57625 -9.2553125 12.2775 -9.25 13 C-9.25515625 13.70125 -9.2603125 14.4025 -9.265625 15.125 C-9.15705515 17.2435669 -9.15705515 17.2435669 -7 19 C-2.66356399 19.31537716 -0.67346771 19.44897847 3 17 C4.32 17.66 5.64 18.32 7 19 C5.75023244 22.65316671 5.32901247 23.78065836 2 26 C-2.34615406 26.64817054 -6.9666809 27.00465176 -10.984375 25.01953125 C-13.74890491 22.79559011 -16.02361127 20.41736056 -17 17 C-17.46225901 12.22332358 -17.49973779 9.98096677 -15.3125 5.6875 C-10.8183421 0.46455974 -6.73732518 -1.00923495 0 0 Z " fill="#666666" transform="translate(174,153)"/>
<path d="M0 0 C2.58603823 1.40342872 3.97272955 2.80835627 6 5 C4.75 6.5625 4.75 6.5625 3 8 C1.25 7.75 1.25 7.75 -1 7 C-5.59999452 5.83023451 -5.59999452 5.83023451 -9.9375 7.0625 C-11.45929053 9.83752979 -11.32443143 11.88545823 -11 15 C-10.01 16.485 -10.01 16.485 -9 18 C-6.79274927 18.36362818 -6.79274927 18.36362818 -4.375 18.1875 C-3.55773437 18.16042969 -2.74046875 18.13335937 -1.8984375 18.10546875 C-0.95871094 18.05326172 -0.95871094 18.05326172 0 18 C0 17.34 0 16.68 0 16 C1.98 16.66 3.96 17.32 6 18 C4.59344643 21.39917113 3.12930725 23.06719258 0 25 C-4.36445818 25.79114046 -9.009095 26.04175261 -13.015625 23.9453125 C-16.01723658 21.48282533 -17.83024776 19.48411962 -18.2734375 15.609375 C-18.58136511 6.94002851 -18.58136511 6.94002851 -15.625 3.375 C-10.89932952 -0.90060663 -6.18767098 -0.81806058 0 0 Z " fill="#303030" transform="translate(220,117)"/>
<path d="M0 0 C3.25 1.8125 3.25 1.8125 5 4 C5 4.99 5 5.98 5 7 C2.125 7.625 2.125 7.625 -1 8 C-1.66 7.34 -2.32 6.68 -3 6 C-6 5.66666667 -6 5.66666667 -9 6 C-11.24324836 7.81193006 -11.24324836 7.81193006 -11.1953125 10.3828125 C-11.17210937 11.28773438 -11.14890625 12.19265625 -11.125 13.125 C-11.10695313 14.03507813 -11.08890625 14.94515625 -11.0703125 15.8828125 C-11.04710937 16.58148438 -11.02390625 17.28015625 -11 18 C-5.59907227 19.16490598 -3.59939278 18.859082 1 16 C3.3125 16.8125 3.3125 16.8125 5 18 C3.52715424 22.66401159 3.52715424 22.66401159 1.22265625 24.1328125 C-2.8251953 25.71211486 -6.74559625 25.76344362 -11 25 C-14.97857779 22.7316382 -17.5449891 20.36503271 -19 16 C-19.50154202 9.8811874 -19.07788705 6.89346446 -15 2 C-10.33734965 -1.10843357 -5.46013742 -0.61077009 0 0 Z " fill="#2E2E2E" transform="translate(52,117)"/>
<path d="M0 0 C5.94 0 11.88 0 18 0 C18 1.65 18 3.3 18 5 C14.04 5 10.08 5 6 5 C6 6.32 6 7.64 6 9 C9.96 9 13.92 9 18 9 C18 10.98 18 12.96 18 15 C14.04 15 10.08 15 6 15 C6 18.3 6 21.6 6 25 C4.02 25 2.04 25 0 25 C0 16.75 0 8.5 0 0 Z " fill="#646464" transform="translate(207,154)"/>
<path d="M0 0 C3.1875 -0.4375 3.1875 -0.4375 7 0 C9.11158381 2.08545034 10.56739143 4.41206193 12 7 C14.29113732 4.8092961 15.6975667 2.90542812 17 0 C19.64 0 22.28 0 25 0 C24.2302804 1.3964478 23.45916631 2.79212699 22.6875 4.1875 C22.00494141 5.43466797 22.00494141 5.43466797 21.30859375 6.70703125 C20 9 20 9 18.25 11.375 C16.20324273 15.67319027 16.23903776 20.29342894 16 25 C13.69 25 11.38 25 9 25 C9.020625 24.27296875 9.04125 23.5459375 9.0625 22.796875 C8.87232198 13.52569647 5.43500126 8.2920632 0 1 C0 0.67 0 0.34 0 0 Z " fill="#484848" transform="translate(57,117)"/>
<path d="M0 0 C4.62 0 9.24 0 14 0 C14.33 0.99 14.66 1.98 15 3 C14.34 3.66 13.68 4.32 13 5 C12.855625 5.680625 12.71125 6.36125 12.5625 7.0625 C12.376875 7.701875 12.19125 8.34125 12 9 C11.01 9.33 10.02 9.66 9 10 C9 10.66 9 11.32 9 12 C9.825 12.474375 10.65 12.94875 11.5 13.4375 C12.325 13.953125 13.15 14.46875 14 15 C14 15.99 14 16.98 14 18 C11.70961976 19.14519012 10.46931463 19.07351912 7.9375 19 C6.638125 19 5.33875 19 4 19 C3.67 19.33 3.34 19.66 3 20 C5.31 20 7.62 20 10 20 C9.67 20.66 9.34 21.32 9 22 C6.03 22 3.06 22 0 22 C0 14.74 0 7.48 0 0 Z " fill="#3C3C3C" transform="translate(86,118)"/>
<path d="M0 0 C6.6 0 13.2 0 20 0 C20 1.65 20 3.3 20 5 C18.02 5 16.04 5 14 5 C14 11.6 14 18.2 14 25 C11.69 25 9.38 25 7 25 C7 18.4 7 11.8 7 5 C4.69 5 2.38 5 0 5 C0 3.35 0 1.7 0 0 Z " fill="#696969" transform="translate(183,154)"/>
<path d="M0 0 C3.83625 -0.12375 3.83625 -0.12375 7.75 -0.25 C8.54889648 -0.28641602 9.34779297 -0.32283203 10.17089844 -0.36035156 C13.64868243 -0.41466456 15.62029504 -0.27768566 18.45703125 1.796875 C20.6187408 4.88346788 20.9332024 7.25933463 21 11 C19.6875 13.4375 19.6875 13.4375 18 15 C17.34 15 16.68 15 16 15 C16.28875 15.55429688 16.5775 16.10859375 16.875 16.6796875 C17.431875 17.76636719 17.431875 17.76636719 18 18.875 C18.37125 19.59429687 18.7425 20.31359375 19.125 21.0546875 C20 23 20 23 20 25 C17.69 25 15.38 25 13 25 C12.74605469 24.44570312 12.49210938 23.89140625 12.23046875 23.3203125 C11.88628906 22.59585938 11.54210937 21.87140625 11.1875 21.125 C10.68283203 20.04605469 10.68283203 20.04605469 10.16796875 18.9453125 C9.00532903 16.69457194 9.00532903 16.69457194 6 15 C7.32 15 8.64 15 10 15 C10 14.34 10 13.68 10 13 C9.01 13 8.02 13 7 13 C7 12.34 7 11.68 7 11 C8.98 10.67 10.96 10.34 13 10 C12.67 7.36 12.34 4.72 12 2 C8.37 1.67 4.74 1.34 1 1 C1 8.26 1 15.52 1 23 C1.66 23.33 2.32 23.66 3 24 C2.01 24 1.02 24 0 24 C0 16.08 0 8.16 0 0 Z " fill="#2D2D2D" transform="translate(133,117)"/>
<path d="M0 0 C0.66 0.66 1.32 1.32 2 2 C1.690625 3.670625 1.690625 3.670625 1.375 5.375 C0.63805397 8.91887124 0.63805397 8.91887124 2.375 11.25 C6.00524216 13.67016144 9.82362802 14.82204893 14 16 C13.67 16.99 13.34 17.98 13 19 C11.741875 18.87625 10.48375 18.7525 9.1875 18.625 C8.47980469 18.55539063 7.77210938 18.48578125 7.04296875 18.4140625 C5 18 5 18 2 16 C0.99782936 19.58327753 0.99782936 19.58327753 2 23 C1.01 23 0.02 23 -1 23 C-1 22.34 -1 21.68 -1 21 C-1.66 21 -2.32 21 -3 21 C-2.9175 19.741875 -2.835 18.48375 -2.75 17.1875 C-2.72924612 13.90531376 -2.72924612 13.90531376 -4.4375 11.1875 C-8.18522366 9.45075001 -12.04865107 8.19047051 -16 7 C-16 6.01 -16 5.02 -16 4 C-8.375 4.875 -8.375 4.875 -5 6 C-4.34 4.35 -3.68 2.7 -3 1 C-2.01 1.33 -1.02 1.66 0 2 C0 1.34 0 0.68 0 0 Z " fill="#F7EDEC" transform="translate(144,81)"/>
<path d="M0 0 C1.8125 1.125 1.8125 1.125 3 3 C3.25265405 6.09501208 3.39935013 8.20129973 2 11 C1.34 11 0.68 11 0 11 C0.495 11.94875 0.99 12.8975 1.5 13.875 C3 17 3 17 3 19 C-0.3 19 -3.6 19 -7 19 C-6.67447917 16.98177083 -6.34895833 14.96354167 -6.0234375 12.9453125 C-6.01570312 12.30335937 -6.00796875 11.66140625 -6 11 C-6.66 10.34 -7.32 9.68 -8 9 C-8.333728 5.86295684 -8.52849028 3.83445834 -6.8125 1.125 C-4.34492892 -0.40659584 -2.85480169 -0.42822025 0 0 Z " fill="#F3F3F3" transform="translate(200,82)"/>
<path d="M0 0 C2.58603823 1.40342872 3.97272955 2.80835627 6 5 C4.75 6.5625 4.75 6.5625 3 8 C1.25 7.75 1.25 7.75 -1 7 C-4.46537413 6.00489151 -4.46537413 6.00489151 -8 6 C-10.39663957 8.22487879 -10.39663957 8.22487879 -12 11 C-12.66 11.66 -13.32 12.32 -14 13 C-14 12.34 -14 11.68 -14 11 C-14.99 11 -15.98 11 -17 11 C-17 12.65 -17 14.3 -17 16 C-17.33 16 -17.66 16 -18 16 C-18.76140684 8.38593156 -18.76140684 8.38593156 -16.95703125 5.1015625 C-12.11003709 -0.72620174 -7.25318985 -0.95893087 0 0 Z " fill="#2A2A2A" transform="translate(220,117)"/>
<path d="M0 0 C0.80752213 -0.00524185 1.61504425 -0.0104837 2.44703674 -0.0158844 C4.15421398 -0.02230511 5.86143545 -0.02096693 7.56860352 -0.01245117 C10.1787005 -0.00394764 12.78660405 -0.03268838 15.39648438 -0.06445312 C17.05598893 -0.06606543 18.71549735 -0.06548704 20.375 -0.0625 C21.15427353 -0.07373398 21.93354706 -0.08496796 22.73643494 -0.09654236 C26.19688099 -0.05212111 28.36337386 0.16704595 31.25317383 2.1394043 C33.05342308 4.89146908 33.22051908 6.36924206 33.14453125 9.63671875 C33.13164062 10.61640625 33.11875 11.59609375 33.10546875 12.60546875 C33.07195312 13.62125 33.0384375 14.63703125 33.00390625 15.68359375 C32.98585937 16.71484375 32.9678125 17.74609375 32.94921875 18.80859375 C32.90213337 21.35120439 32.83638675 23.89192537 32.75390625 26.43359375 C31.76390625 26.92859375 31.76390625 26.92859375 30.75390625 27.43359375 C30.76437988 26.81315186 30.77485352 26.19270996 30.78564453 25.5534668 C30.82721511 22.74271698 30.85323558 19.93203185 30.87890625 17.12109375 C30.89566406 16.14462891 30.91242188 15.16816406 30.9296875 14.16210938 C30.93613281 13.22431641 30.94257813 12.28652344 30.94921875 11.3203125 C30.95969238 10.45623779 30.97016602 9.59216309 30.98095703 8.7019043 C30.90480793 6.15178654 30.90480793 6.15178654 28.75390625 3.43359375 C26.73113944 2.92737862 26.73113944 2.92737862 24.40234375 2.921875 C23.5515625 2.88642578 22.70078125 2.85097656 21.82421875 2.81445312 C20.93476563 2.79189453 20.0453125 2.76933594 19.12890625 2.74609375 C17.783125 2.69485352 17.783125 2.69485352 16.41015625 2.64257812 C14.19153087 2.55996973 11.97330685 2.49086656 9.75390625 2.43359375 C9.75390625 3.09359375 9.75390625 3.75359375 9.75390625 4.43359375 C10.53765625 4.51609375 11.32140625 4.59859375 12.12890625 4.68359375 C14.75390625 5.43359375 14.75390625 5.43359375 16.06640625 7.49609375 C16.40671875 8.45515625 16.40671875 8.45515625 16.75390625 9.43359375 C16.19703125 8.93859375 15.64015625 8.44359375 15.06640625 7.93359375 C12.29244887 6.13427005 11.00197486 5.94638346 7.75390625 6.43359375 C5.46906319 7.83316572 5.46906319 7.83316572 3.75390625 9.43359375 C5.62890625 4.68359375 5.62890625 4.68359375 6.75390625 2.43359375 C4.31468264 2.52060173 1.87912211 2.62745377 -0.55859375 2.74609375 C-1.5940332 2.77993164 -1.5940332 2.77993164 -2.65039062 2.81445312 C-6.73816109 3.01729345 -6.73816109 3.01729345 -10.2265625 4.9765625 C-10.56300781 5.45738281 -10.89945313 5.93820313 -11.24609375 6.43359375 C-11.24609375 3.43359375 -11.24609375 3.43359375 -10.26147461 1.77319336 C-7.07993194 -0.34154009 -3.69622041 -0.01388813 0 0 Z " fill="#2A2A2A" transform="translate(187.24609375,76.56640625)"/>
<path d="M0 0 C0.33 0 0.66 0 1 0 C1.33 4.62 1.66 9.24 2 14 C2.99 13.67 3.98 13.34 5 13 C5 14.32 5 15.64 5 17 C9.62 17 14.24 17 19 17 C19 18.98 19 20.96 19 23 C12.73 23 6.46 23 0 23 C0 15.41 0 7.82 0 0 Z " fill="#2D2D2D" transform="translate(110,119)"/>
<path d="M0 0 C5.36170213 0.59574468 5.36170213 0.59574468 7.875 2.1875 C9.61514411 4.99106551 9.51732864 6.76669603 9 10 C7.25 12.875 7.25 12.875 4 15 C-0.99244342 15.72196317 -6.01252608 16.28350869 -10.37109375 13.46875 C-10.90863281 12.9840625 -11.44617188 12.499375 -12 12 C-11.34 10.35 -10.68 8.7 -10 7 C-8.7315625 7.4640625 -8.7315625 7.4640625 -7.4375 7.9375 C-3.9502146 9.01538821 -0.61822465 9.56581304 3 10 C3.33 9.01 3.66 8.02 4 7 C4.66 6.67 5.32 6.34 6 6 C6.33 5.01 6.66 4.02 7 3 C4.69 2.34 2.38 1.68 0 1 C0 0.67 0 0.34 0 0 Z " fill="#303030" transform="translate(168,127)"/>
<path d="M0 0 C0.66 0 1.32 0 2 0 C2.66 2.97 3.32 5.94 4 9 C2.68 9.33 1.36 9.66 0 10 C0.33 10.66 0.66 11.32 1 12 C-0.32 12 -1.64 12 -3 12 C-3 12.66 -3 13.32 -3 14 C-0.03 14 2.94 14 6 14 C6 14.33 6 14.66 6 15 C2.37 15 -1.26 15 -5 15 C-5 15.99 -5 16.98 -5 18 C-7.64 18 -10.28 18 -13 18 C-11.68 14.04 -10.36 10.08 -9 6 C-8.01 6 -7.02 6 -6 6 C-6 6.99 -6 7.98 -6 9 C-2.91240441 8.35932024 -2.91240441 8.35932024 -2.05078125 6.15234375 C-1.80714844 5.42144531 -1.56351563 4.69054687 -1.3125 3.9375 C-1.06113281 3.20402344 -0.80976562 2.47054687 -0.55078125 1.71484375 C-0.36902344 1.14894531 -0.18726562 0.58304687 0 0 Z " fill="#8D2325" transform="translate(106,87)"/>
<path d="M0 0 C0.804375 0.763125 1.60875 1.52625 2.4375 2.3125 C6.19279792 5.48243973 10.3191173 6.72055873 15 8 C14.67 8.99 14.34 9.98 14 11 C9.32538149 11.32613618 6.83325617 10.70582788 3 8 C2.34 9.98 1.68 11.96 1 14 C5.29 14.66 9.58 15.32 14 16 C14 16.33 14 16.66 14 17 C7.07 17 0.14 17 -7 17 C-7 16.67 -7 16.34 -7 16 C-4.69 16 -2.38 16 0 16 C-0.28875 15.30132812 -0.5775 14.60265625 -0.875 13.8828125 C-1.24625 12.97273438 -1.6175 12.06265625 -2 11.125 C-2.37125 10.22007813 -2.7425 9.31515625 -3.125 8.3828125 C-4 6 -4 6 -4 4 C-2.68 3.34 -1.36 2.68 0 2 C0 1.34 0 0.68 0 0 Z " fill="#F0E2DF" transform="translate(120,89)"/>
<path d="M0 0 C3.63 0 7.26 0 11 0 C11 1.65 11 3.3 11 5 C7.37 5 3.74 5 0 5 C0 6.65 0 8.3 0 10 C3.63 10 7.26 10 11 10 C11 11.32 11 12.64 11 14 C5.72 14 0.44 14 -5 14 C-5 13.01 -5 12.02 -5 11 C-4.34 11 -3.68 11 -3 11 C-2.855625 9.865625 -2.71125 8.73125 -2.5625 7.5625 C-2 4 -2 4 -1 3 C0.85287502 2.92773498 2.70833878 2.9161878 4.5625 2.9375 C5.57441406 2.94652344 6.58632812 2.95554688 7.62890625 2.96484375 C8.80259766 2.98224609 8.80259766 2.98224609 10 3 C10 2.34 10 1.68 10 1 C6.7 1 3.4 1 0 1 C0 0.67 0 0.34 0 0 Z " fill="#272727" transform="translate(187,127)"/>
<path d="M0 0 C5.61 0 11.22 0 17 0 C17 1.65 17 3.3 17 5 C12.71 5 8.42 5 4 5 C4 6.32 4 7.64 4 9 C2.68 9.99 1.36 10.98 0 12 C0 8.04 0 4.08 0 0 Z " fill="#2A2A2A" transform="translate(182,117)"/>
<path d="M0 0 C0.33 0 0.66 0 1 0 C1 8.25 1 16.5 1 25 C-0.98 25 -2.96 25 -5 25 C-5 20.38 -5 15.76 -5 11 C-4.34 11 -3.68 11 -3 11 C-3 12.65 -3 14.3 -3 16 C-2.34 16 -1.68 16 -1 16 C-1.01160156 15.18015625 -1.02320312 14.3603125 -1.03515625 13.515625 C-1.04417969 12.43796875 -1.05320312 11.3603125 -1.0625 10.25 C-1.07410156 9.18265625 -1.08570312 8.1153125 -1.09765625 7.015625 C-1.01510087 4.46631499 -0.74617558 2.42066409 0 0 Z " fill="#7F0F11" transform="translate(90,80)"/>
<path d="M0 0 C2.97 0 5.94 0 9 0 C9 0.66 9 1.32 9 2 C10.32 2.66 11.64 3.32 13 4 C12.67 5.65 12.34 7.3 12 9 C11.34 9 10.68 9 10 9 C9.67 9.66 9.34 10.32 9 11 C8.34 10.67 7.68 10.34 7 10 C7 9.34 7 8.68 7 8 C6.04287109 7.70996094 6.04287109 7.70996094 5.06640625 7.4140625 C3.82697266 7.02347656 3.82697266 7.02347656 2.5625 6.625 C1.73878906 6.36976563 0.91507813 6.11453125 0.06640625 5.8515625 C-2 5 -2 5 -3 3 C-2.01 3 -1.02 3 0 3 C0 2.01 0 1.02 0 0 Z " fill="#343434" transform="translate(162,126)"/>
<path d="M0 0 C0.845625 0.309375 1.69125 0.61875 2.5625 0.9375 C6.0497854 2.01538821 9.38177535 2.56581304 13 3 C12.67 3.66 12.34 4.32 12 5 C12.99 5.66 13.98 6.32 15 7 C13.20578481 8.79421519 10.60967074 8.21485363 8.1875 8.25 C7.12917969 8.27578125 6.07085937 8.3015625 4.98046875 8.328125 C1.70612476 7.96764676 0.39000682 7.19903775 -2 5 C-1.34 3.35 -0.68 1.7 0 0 Z " fill="#831E1F" transform="translate(146,97)"/>
<path d="M0 0 C0.66 0 1.32 0 2 0 C2 6.66666667 2 13.33333333 2 20 C2.66 20.33 3.32 20.66 4 21 C3 24 3 24 1 25 C-0.70702735 25.06996014 -2.41668003 25.08440154 -4.125 25.0625 C-5.03507812 25.05347656 -5.94515625 25.04445313 -6.8828125 25.03515625 C-7.93082031 25.01775391 -7.93082031 25.01775391 -9 25 C-9 24.67 -9 24.34 -9 24 C-6.69 24 -4.38 24 -2 24 C-2 23.01 -2 22.02 -2 21 C-2.99 21.33 -3.98 21.66 -5 22 C-5.99 21.34 -6.98 20.68 -8 20 C-5.69 19.34 -3.38 18.68 -1 18 C-0.505 9.09 -0.505 9.09 0 0 Z " fill="#862628" transform="translate(51,80)"/>
<path d="M0 0 C3.25 -0.375 3.25 -0.375 7 0 C9.70448323 3.12055757 11 4.83274304 11 9 C11.66 9.33 12.32 9.66 13 10 C11.68 10.33 10.36 10.66 9 11 C9 11.99 9 12.98 9 14 C7.87162591 12.41906946 6.74743482 10.83515284 5.625 9.25 C4.99851562 8.36828125 4.37203125 7.4865625 3.7265625 6.578125 C2.28519059 4.42585021 1.08501907 2.34539477 0 0 Z " fill="#292929" transform="translate(57,117)"/>
<path d="M0 0 C0.33 0.66 0.66 1.32 1 2 C1.66 2.33 2.32 2.66 3 3 C2.01 3.99 1.02 4.98 0 6 C1.32 5.67 2.64 5.34 4 5 C4.33 5.66 4.66 6.32 5 7 C7.52733235 7.65555119 7.52733235 7.65555119 10 8 C8 10 8 10 5 11 C5.33 11.66 5.66 12.32 6 13 C4.3125 13.8125 4.3125 13.8125 2 14 C-0.8125 12 -0.8125 12 -3 9 C-2.93185849 4.97965076 -2.8823175 2.8823175 0 0 Z " fill="#8A2021" transform="translate(124,81)"/>
<path d="M0 0 C2.475 0.99 2.475 0.99 5 2 C6.35616438 8.28767123 6.35616438 8.28767123 4.625 11.75 C4.08875 12.4925 3.5525 13.235 3 14 C2.67 14.99 2.34 15.98 2 17 C0.4375 15.8125 0.4375 15.8125 -1 14 C-0.69972883 12.32706064 -0.36442233 10.66014616 0 9 C-0.84077872 6.73142854 -0.84077872 6.73142854 -2 5 C-1.34 4.34 -0.68 3.68 0 3 C0 2.01 0 1.02 0 0 Z " fill="#373737" transform="translate(100,117)"/>
<path d="M0 0 C5.94 0 11.88 0 18 0 C18 1.65 18 3.3 18 5 C13.71 5 9.42 5 5 5 C5.33 3.68 5.66 2.36 6 1 C4.02 1 2.04 1 0 1 C0 0.67 0 0.34 0 0 Z " fill="#5A5A5A" transform="translate(207,154)"/>
<path d="M0 0 C2.24151882 2.24151882 2.96301325 4.0067112 4.125 6.9375 C4.47820312 7.81277344 4.83140625 8.68804687 5.1953125 9.58984375 C6 12 6 12 6 15 C7.32 14.67 8.64 14.34 10 14 C10 14.66 10 15.32 10 16 C7.03 16.33 4.06 16.66 1 17 C-0.53266582 13.93466836 -0.10276471 10.73245728 -0.0625 7.375 C-0.05798828 6.66859375 -0.05347656 5.9621875 -0.04882812 5.234375 C-0.03703875 3.48954725 -0.01910324 1.744763 0 0 Z " fill="#F4EAE6" transform="translate(69,90)"/>
<path d="M0 0 C2.64 0 5.28 0 8 0 C2.9977221 9.59453303 2.9977221 9.59453303 -1 13 C-0.67 11.35 -0.34 9.7 0 8 C-0.99 8 -1.98 8 -3 8 C-1.125 2.25 -1.125 2.25 0 0 Z " fill="#2F2F2F" transform="translate(74,117)"/>
<path d="M0 0 C4.95 0 9.9 0 15 0 C15 0.99 15 1.98 15 3 C14.24074219 3.01417969 13.48148438 3.02835937 12.69921875 3.04296875 C9.72076758 3.1859035 6.92009995 3.38751227 4 4 C1.78693049 6.37255115 1.78693049 6.37255115 1 9 C0.67 9 0.34 9 0 9 C0 6.03 0 3.06 0 0 Z " fill="#313131" transform="translate(112,118)"/>
<path d="M0 0 C0.680625 0.309375 1.36125 0.61875 2.0625 0.9375 C5.36965912 2.13370649 8.51545878 2.59005397 12 3 C11.67 3.99 11.34 4.98 11 6 C8.03 5.505 8.03 5.505 5 5 C4.67 5.66 4.34 6.32 4 7 C6.64 7 9.28 7 12 7 C12 7.33 12 7.66 12 8 C10.41705218 8.05437607 8.83355744 8.09296271 7.25 8.125 C6.36828125 8.14820312 5.4865625 8.17140625 4.578125 8.1953125 C1.8864142 7.99139502 0.30095026 7.36551721 -2 6 C-1.49396008 3.83125748 -1.00016187 2.00032373 0 0 Z " fill="#7F1C1C" transform="translate(123,97)"/>
<path d="M0 0 C1.41623216 -0.05447047 2.83308191 -0.09300508 4.25 -0.125 C5.03890625 -0.14820312 5.8278125 -0.17140625 6.640625 -0.1953125 C9.20731941 0.0171622 10.7916067 0.71345895 13 2 C12.34 3.65 11.68 5.3 11 7 C9.3489597 6.60446947 7.7041485 6.18286103 6.0625 5.75 C5.14597656 5.51796875 4.22945312 5.2859375 3.28515625 5.046875 C1 4 1 4 0.18359375 1.890625 C0.12300781 1.26671875 0.06242188 0.6428125 0 0 Z " fill="#282828" transform="translate(163,117)"/>
<path d="M0 0 C6.6 0 13.2 0 20 0 C20 1.65 20 3.3 20 5 C19.67 3.68 19.34 2.36 19 1 C15.7 1.33 12.4 1.66 9 2 C8.67 2.99 8.34 3.98 8 5 C5.36 5 2.72 5 0 5 C0 3.35 0 1.7 0 0 Z " fill="#585858" transform="translate(183,154)"/>
<path d="M0 0 C0.33 0 0.66 0 1 0 C1 5.94 1 11.88 1 18 C1.99 18.33 2.98 18.66 4 19 C3.67 20.65 3.34 22.3 3 24 C5.31 24.33 7.62 24.66 10 25 C10 25.33 10 25.66 10 26 C4.72 26 -0.56 26 -6 26 C-6 25.67 -6 25.34 -6 25 C-4.02 25 -2.04 25 0 25 C0 16.75 0 8.5 0 0 Z " fill="#E9CFCB" transform="translate(91,80)"/>
<path d="M0 0 C5.875 0.875 5.875 0.875 7 2 C7.33 1.34 7.66 0.68 8 0 C9.32 0.66 10.64 1.32 12 2 C12 3.32 12 4.64 12 6 C10.1875 6.625 10.1875 6.625 8 7 C7.01 6.34 6.02 5.68 5 5 C3.0103005 4.60986284 1.00980131 4.26797351 -1 4 C-0.67 2.68 -0.34 1.36 0 0 Z " fill="#5E5E5E" transform="translate(168,155)"/>
<path d="M0 0 C2.97 0 5.94 0 9 0 C9.83764268 1.95649397 10.66999059 3.91525556 11.5 5.875 C11.9640625 6.96554688 12.428125 8.05609375 12.90625 9.1796875 C14 12 14 12 14 14 C13.34 14 12.68 14 12 14 C11.49384702 12.73160474 10.99530901 11.46016898 10.5 10.1875 C10.2215625 9.47980469 9.943125 8.77210937 9.65625 8.04296875 C9 6 9 6 9 3 C8.01 3.495 8.01 3.495 7 4 C7.33 5.32 7.66 6.64 8 8 C6.02 7.34 4.04 6.68 2 6 C2.99 4.68 3.98 3.36 5 2 C3.35 2 1.7 2 0 2 C0 1.34 0 0.68 0 0 Z " fill="#862123" transform="translate(102,80)"/>
<path d="M0 0 C0 3.63 0 7.26 0 11 C-1.65 11 -3.3 11 -5 11 C-5 7.7 -5 4.4 -5 1 C-1 0 -1 0 0 0 Z " fill="#1D1D1D" transform="translate(72,131)"/>
<path d="M0 0 C0.33 0 0.66 0 1 0 C1 7.59 1 15.18 1 23 C1.66 22.67 2.32 22.34 3 22 C3.47001033 18.72444392 3.47001033 18.72444392 3.625 14.9375 C3.69976562 13.64714844 3.77453125 12.35679688 3.8515625 11.02734375 C3.90054688 10.02832031 3.94953125 9.02929688 4 8 C4.33 8 4.66 8 5 8 C5 13.61 5 19.22 5 25 C3.35 25 1.7 25 0 25 C0 16.75 0 8.5 0 0 Z " fill="#7A080B" transform="translate(63,80)"/>
<path d="M0 0 C5.36170213 0.59574468 5.36170213 0.59574468 7.875 2.1875 C9.56589731 4.91172344 9.38457172 6.85933099 9 10 C7.5 12.375 7.5 12.375 6 14 C5.01 13.67 4.02 13.34 3 13 C3.66 13 4.32 13 5 13 C4.34 12.01 3.68 11.02 3 10 C3.33 9.01 3.66 8.02 4 7 C4.66 6.67 5.32 6.34 6 6 C6.33 5.01 6.66 4.02 7 3 C4.69 2.34 2.38 1.68 0 1 C0 0.67 0 0.34 0 0 Z " fill="#262626" transform="translate(168,127)"/>
<path d="M0 0 C2.31 0 4.62 0 7 0 C7.38218767 1.65614657 7.71395102 3.32457024 8 5 C7 6 7 6 3.4375 6.0625 C2.303125 6.041875 1.16875 6.02125 0 6 C0 4.02 0 2.04 0 0 Z " fill="#E4E4E4" transform="translate(139,122)"/>
<path d="M0 0 C5.445 1.485 5.445 1.485 11 3 C11 4.32 11 5.64 11 7 C8.03155565 7.35338623 5.84401782 7.5417682 3.265625 5.88671875 C1.79651181 4.64496832 0.39295186 3.32662082 -1 2 C-0.67 1.34 -0.34 0.68 0 0 Z " fill="#F4ECEA" transform="translate(123,93)"/>
<path d="M0 0 C2.97 0.495 2.97 0.495 6 1 C5.67 3.64 5.34 6.28 5 9 C4.01 9.33 3.02 9.66 2 10 C-1.07692308 5.69230769 -1.07692308 5.69230769 -0.6875 2.1875 C-0.460625 1.465625 -0.23375 0.74375 0 0 Z " fill="#892424" transform="translate(81,81)"/>
<path d="M0 0 C2.125 0.375 2.125 0.375 4 1 C4.625 2.875 4.625 2.875 5 5 C4.34 5.66 3.68 6.32 3 7 C2.01 6.67 1.02 6.34 0 6 C0 7.32 0 8.64 0 10 C0.66 10.66 1.32 11.32 2 12 C1.01 12 0.02 12 -1 12 C-3 9 -3 9 -2.75 5.4375 C-2 2 -2 2 0 0 Z " fill="#852728" transform="translate(147,81)"/>
<path d="M0 0 C2.26171875 0.4609375 2.26171875 0.4609375 4.6875 1.375 C5.49574219 1.67148438 6.30398437 1.96796875 7.13671875 2.2734375 C7.75160156 2.51320312 8.36648437 2.75296875 9 3 C8.67 3.99 8.34 4.98 8 6 C0.49230769 5.38461538 0.49230769 5.38461538 -2 3.4375 C-2.33 2.963125 -2.66 2.48875 -3 2 C-2.01 1.34 -1.02 0.68 0 0 Z " fill="#EEEEEE" transform="translate(161,131)"/>
<path d="M0 0 C0.33 0.99 0.66 1.98 1 3 C-0.32 3.33 -1.64 3.66 -3 4 C-3 4.66 -3 5.32 -3 6 C-5.64 5.67 -8.28 5.34 -11 5 C-11 3.68 -11 2.36 -11 1 C-7.53058454 1.45822468 -4.32604951 1.89131683 -1 3 C-0.67 2.01 -0.34 1.02 0 0 Z " fill="#F0E0DE" transform="translate(163,84)"/>
<path d="M0 0 C1 2 1 2 0.5 4.6875 C-0.0558677 8.3701235 0.34342354 11.35235301 1 15 C-1.38962525 14.0441499 -2.7630018 13.32948531 -4.28125 11.21875 C-5 9 -5 9 -4.1015625 6.640625 C-3.61429688 5.85171875 -3.12703125 5.0628125 -2.625 4.25 C-2.14289062 3.45078125 -1.66078125 2.6515625 -1.1640625 1.828125 C-0.77992187 1.22484375 -0.39578125 0.6215625 0 0 Z " fill="#282828" transform="translate(39,125)"/>
<path d="M0 0 C0.33 1.32 0.66 2.64 1 4 C5.62 4 10.24 4 15 4 C15 5.98 15 7.96 15 10 C14.67 10 14.34 10 14 10 C14 8.35 14 6.7 14 5 C10.04 5 6.08 5 2 5 C2 5.66 2 6.32 2 7 C0.68 6.67 -0.64 6.34 -2 6 C-2 4.35 -2 2.7 -2 1 C-1.34 0.67 -0.68 0.34 0 0 Z " fill="#575757" transform="translate(114,132)"/>
<path d="M0 0 C2.3125 0.1875 2.3125 0.1875 5 1 C6.8125 3.5625 6.8125 3.5625 8 6 C8.66 5.67 9.32 5.34 10 5 C10.33 5.66 10.66 6.32 11 7 C11.33 6.34 11.66 5.68 12 5 C12.66 6.65 13.32 8.3 14 10 C11.69 10 9.38 10 7 10 C6.61908203 9.16855469 6.61908203 9.16855469 6.23046875 8.3203125 C5.88628906 7.59585938 5.54210937 6.87140625 5.1875 6.125 C4.85105469 5.40570313 4.51460937 4.68640625 4.16796875 3.9453125 C3.00532903 1.69457194 3.00532903 1.69457194 0 0 Z " fill="#252525" transform="translate(139,132)"/>
<path d="M0 0 C0.33 0 0.66 0 1 0 C1 4.95 1 9.9 1 15 C0.01 13.68 -0.98 12.36 -2 11 C-2.66 11 -3.32 11 -4 11 C-3.5247412 9.35303396 -3.04468109 7.70745272 -2.5625 6.0625 C-2.29566406 5.14597656 -2.02882813 4.22945313 -1.75390625 3.28515625 C-1 1 -1 1 0 0 Z " fill="#EBD9D4" transform="translate(84,90)"/>
<path d="M0 0 C0.66 0 1.32 0 2 0 C2.66 2.97 3.32 5.94 4 9 C2.02 9 0.04 9 -2 9 C-1.125 2.25 -1.125 2.25 0 0 Z " fill="#EBD8D8" transform="translate(106,87)"/>
<path d="M0 0 C2.64 0 5.28 0 8 0 C8.33 1.32 8.66 2.64 9 4 C6.03 4 3.06 4 0 4 C0 2.68 0 1.36 0 0 Z " fill="#F3F3F3" transform="translate(91,132)"/>
<path d="M0 0 C1.258125 0.12375 2.51625 0.2475 3.8125 0.375 C4.87404297 0.47941406 4.87404297 0.47941406 5.95703125 0.5859375 C8 1 8 1 11 3 C7.67438135 4.76062164 6.40826005 5.10784228 2.6875 4.125 C1.800625 3.75375 0.91375 3.3825 0 3 C0 2.01 0 1.02 0 0 Z " fill="#EEE1DE" transform="translate(128,85)"/>
<path d="M0 0 C1.98 0.66 3.96 1.32 6 2 C6 2.66 6 3.32 6 4 C0.40693931 6.05459372 -2.40693931 6.05459372 -8 4 C-8 3.67 -8 3.34 -8 3 C-5.36 2.67 -2.72 2.34 0 2 C0 1.34 0 0.68 0 0 Z " fill="#474747" transform="translate(220,133)"/>
<path d="M0 0 C2.97 0 5.94 0 9 0 C8.67 0.66 8.34 1.32 8 2 C8.99 2.66 9.98 3.32 11 4 C10 5 10 5 7.71484375 5.09765625 C6.34005859 5.08025391 6.34005859 5.08025391 4.9375 5.0625 C4.01839844 5.05347656 3.09929687 5.04445313 2.15234375 5.03515625 C1.44207031 5.02355469 0.73179687 5.01195313 0 5 C0.99 4.34 1.98 3.68 3 3 C2.16666667 0.83333333 2.16666667 0.83333333 0 0 Z " fill="#7B1111" transform="translate(150,100)"/>
<path d="M0 0 C0.33 0.66 0.66 1.32 1 2 C0.67 2.66 0.34 3.32 0 4 C1.32 4 2.64 4 4 4 C4 4.66 4 5.32 4 6 C3.34 6 2.68 6 2 6 C1.67 7.32 1.34 8.64 1 10 C-0.485 7.03 -0.485 7.03 -2 4 C-2.99 4.495 -2.99 4.495 -4 5 C-4.99 4.67 -5.98 4.34 -7 4 C-7 3.34 -7 2.68 -7 2 C-4.69 1.34 -2.38 0.68 0 0 Z " fill="#272727" transform="translate(147,126)"/>
<path d="M0 0 C-1.32 0.33 -2.64 0.66 -4 1 C-4 1.66 -4 2.32 -4 3 C-1.03 3 1.94 3 5 3 C5 3.33 5 3.66 5 4 C4.25234375 3.98839844 3.5046875 3.97679688 2.734375 3.96484375 C1.74953125 3.95582031 0.7646875 3.94679688 -0.25 3.9375 C-1.22453125 3.92589844 -2.1990625 3.91429688 -3.203125 3.90234375 C-5.65758678 3.98804423 -7.66168914 4.29293934 -10 5 C-9.625 3.0625 -9.625 3.0625 -9 1 C-6.04335481 -0.4783226 -3.25770263 -0.06032783 0 0 Z " fill="#9A3C3A" transform="translate(107,98)"/>
<path d="M0 0 C2.31 0 4.62 0 7 0 C7.33 1.32 7.66 2.64 8 4 C5.36 4 2.72 4 0 4 C0 2.68 0 1.36 0 0 Z " fill="#EFEFEF" transform="translate(91,122)"/>
<path d="M0 0 C0.433125 0.9590625 0.433125 0.9590625 0.875 1.9375 C1.82823451 4.15206079 1.82823451 4.15206079 4 5 C4.33 4.34 4.66 3.68 5 3 C5 4.32 5 5.64 5 7 C2.36 7 -0.28 7 -3 7 C-2.01 4.69 -1.02 2.38 0 0 Z " fill="#801D1D" transform="translate(96,98)"/>
<path d="M0 0 C2 3 2 3 3 6 C2.67 6.66 2.34 7.32 2 8 C-1.3 7.67 -4.6 7.34 -8 7 C-7.67 6.01 -7.34 5.02 -7 4 C-5.02 4.66 -3.04 5.32 -1 6 C-0.67 4.02 -0.34 2.04 0 0 Z " fill="#8C2224" transform="translate(135,97)"/>
<path d="M0 0 C0.99 0 1.98 0 3 0 C4.125 5.625 4.125 5.625 3 9 C2.34 9 1.68 9 1 9 C-1.125 3.375 -1.125 3.375 0 0 Z " fill="#8D2323" transform="translate(100,85)"/>
<path d="M0 0 C0.33 0 0.66 0 1 0 C1.03738281 0.61488281 1.07476562 1.22976562 1.11328125 1.86328125 C1.17902344 2.67152344 1.24476562 3.47976562 1.3125 4.3125 C1.37050781 5.11300781 1.42851563 5.91351563 1.48828125 6.73828125 C2.08206694 9.36272334 2.95780294 10.30820672 5 12 C3.35 12.66 1.7 13.32 0 14 C-0.19627391 12.41773035 -0.38165538 10.83410729 -0.5625 9.25 C-0.66691406 8.36828125 -0.77132812 7.4865625 -0.87890625 6.578125 C-0.99456676 4.11567549 -0.73638695 2.33461936 0 0 Z " fill="#404040" transform="translate(39,127)"/>
<path d="M0 0 C2.4375 1.25 2.4375 1.25 3.4375 4.25 C0.4675 4.25 -2.5025 4.25 -5.5625 4.25 C-5.2325 2.93 -4.9025 1.61 -4.5625 0.25 C-2.5625 -0.75 -2.5625 -0.75 0 0 Z " fill="#7E0F10" transform="translate(108.5625,96.75)"/>
<path d="M0 0 C0.99 0 1.98 0 3 0 C3 0.66 3 1.32 3 2 C3.78375 2.0825 4.5675 2.165 5.375 2.25 C8 3 8 3 9.3125 5.0625 C9.6528125 6.0215625 9.6528125 6.0215625 10 7 C9.1646875 6.2575 9.1646875 6.2575 8.3125 5.5 C5.53854262 3.7006763 4.24806861 3.51278971 1 4 C-1.28484306 5.39957197 -1.28484306 5.39957197 -3 7 C-1.125 2.25 -1.125 2.25 0 0 Z " fill="#252525" transform="translate(194,79)"/>
<path d="M0 0 C1.258125 -0.04125 2.51625 -0.0825 3.8125 -0.125 C4.52019531 -0.14820313 5.22789062 -0.17140625 5.95703125 -0.1953125 C8 0 8 0 11 2 C10.01 3.485 10.01 3.485 9 5 C8.34 4.67 7.68 4.34 7 4 C4.67126625 3.31744011 2.33817209 2.64949225 0 2 C0 1.34 0 0.68 0 0 Z " fill="#707070" transform="translate(166,153)"/>
<path d="M0 0 C5.75 -0.125 5.75 -0.125 8 1 C7.67 1.99 7.34 2.98 7 4 C4.69 3.67 2.38 3.34 0 3 C0 2.01 0 1.02 0 0 Z " fill="#F7F5F4" transform="translate(150,96)"/>
<path d="M0 0 C2.64 0 5.28 0 8 0 C7.67 0.99 7.34 1.98 7 3 C7.66 3.66 8.32 4.32 9 5 C6.69 5 4.38 5 2 5 C2 4.01 2 3.02 2 2 C1.34 2 0.68 2 0 2 C0 1.34 0 0.68 0 0 Z " fill="#7D1313" transform="translate(149,80)"/>
<path d="M0 0 C1.65 0.33 3.3 0.66 5 1 C4.50168276 4.68754757 3.89932357 6.60490662 1 9 C1.33 7.35 1.66 5.7 2 4 C1.01 4 0.02 4 -1 4 C-0.67 2.68 -0.34 1.36 0 0 Z " fill="#272727" transform="translate(72,121)"/>
<path d="M0 0 C0.33 0.66 0.66 1.32 1 2 C1.66 2.33 2.32 2.66 3 3 C1.68 3.33 0.36 3.66 -1 4 C-0.34 6.64 0.32 9.28 1 12 C0.01 11.67 -0.98 11.34 -2 11 C-3.35384615 4.6 -3.35384615 4.6 -1.5625 1.5625 C-1.046875 1.046875 -0.53125 0.53125 0 0 Z " fill="#83272A" transform="translate(124,81)"/>
<path d="M0 0 C-2.1875 2.5625 -2.1875 2.5625 -5 5 C-7.8125 4.8125 -7.8125 4.8125 -10 4 C-7.16124653 -0.25813021 -4.8137938 -0.13010254 0 0 Z " fill="#2F2F2F" transform="translate(225,137)"/>
<path d="M0 0 C0.125 5.75 0.125 5.75 -1 8 C-2.32 8 -3.64 8 -5 8 C-3.91891892 0 -3.91891892 0 0 0 Z " fill="#313131" transform="translate(152,122)"/>
<path d="M0 0 C1.32 0.66 2.64 1.32 4 2 C3.67 2.33 3.34 2.66 3 3 C3.99 3.66 4.98 4.32 6 5 C3.39417629 5.93065133 2.35801776 6.14917407 -0.25 5.0625 C-0.8275 4.711875 -1.405 4.36125 -2 4 C-1.34 2.68 -0.68 1.36 0 0 Z " fill="#323232" transform="translate(161,117)"/>
<path d="M0 0 C1.9451 2.91765 2.45276317 4.62537285 3 8 C0.03 7.505 0.03 7.505 -3 7 C-2.690625 6.401875 -2.38125 5.80375 -2.0625 5.1875 C-0.89790296 2.91043228 -0.89790296 2.91043228 0 0 Z " fill="#862022" transform="translate(117,97)"/>
<path d="M0 0 C0.66 0 1.32 0 2 0 C2.66 0.99 3.32 1.98 4 3 C5.96361864 3.57748803 5.96361864 3.57748803 8.125 3.6875 C9.40375 3.790625 10.6825 3.89375 12 4 C12 4.33 12 4.66 12 5 C10.39667209 5.08121924 8.79215974 5.13929134 7.1875 5.1875 C6.29417969 5.22230469 5.40085938 5.25710937 4.48046875 5.29296875 C1.58352485 4.95081002 0.77444972 4.24606427 -1 2 C-0.67 1.34 -0.34 0.68 0 0 Z " fill="#7C1012" transform="translate(123,100)"/>
<path d="M0 0 C0.66 0 1.32 0 2 0 C2.36923077 5.53846154 2.36923077 5.53846154 0.5 7.875 C-0.2425 8.431875 -0.2425 8.431875 -1 9 C-1.33 7.35 -1.66 5.7 -2 4 C-1.34 4 -0.68 4 0 4 C0 2.68 0 1.36 0 0 Z " fill="#852527" transform="translate(163,94)"/>
<path d="M0 0 C-0.33 1.65 -0.66 3.3 -1 5 C-1.66 5 -2.32 5 -3 5 C-3.33 5.66 -3.66 6.32 -4 7 C-4.66 6.67 -5.32 6.34 -6 6 C-6 3 -6 3 -4.6875 1.3125 C-3 0 -3 0 0 0 Z " fill="#444444" transform="translate(175,130)"/>
<path d="M0 0 C0.99 0.33 1.98 0.66 3 1 C2.34 2.65 1.68 4.3 1 6 C-1.97 5.505 -1.97 5.505 -5 5 C-3.35 3.35 -1.7 1.7 0 0 Z " fill="#812225" transform="translate(138,81)"/>
<path d="M0 0 C0.66 0.33 1.32 0.66 2 1 C0.1875 4 0.1875 4 -2 7 C-2.99 7 -3.98 7 -5 7 C-3.75023244 3.34683329 -3.32901247 2.21934164 0 0 Z " fill="#5D5D5D" transform="translate(163,155)"/>
<path d="M0 0 C0.99 0.33 1.98 0.66 3 1 C2.67 2.32 2.34 3.64 2 5 C0.35 4.67 -1.3 4.34 -3 4 C-2.67 3.01 -2.34 2.02 -2 1 C-1.34 0.67 -0.68 0.34 0 0 Z " fill="#333333" transform="translate(170,137)"/>
<path d="M0 0 C0.66 0.33 1.32 0.66 2 1 C2 2.98 2 4.96 2 7 C0.68 6.67 -0.64 6.34 -2 6 C-1.34 4.02 -0.68 2.04 0 0 Z " fill="#323232" transform="translate(69,135)"/>
<path d="M0 0 C-0.66 0 -1.32 0 -2 0 C-2.33 1.32 -2.66 2.64 -3 4 C-4.9375 3.625 -4.9375 3.625 -7 3 C-7.33 2.34 -7.66 1.68 -8 1 C-3.375 -1.125 -3.375 -1.125 0 0 Z " fill="#841314" transform="translate(135,91)"/>
<path d="M0 0 C0.66 0.66 1.32 1.32 2 2 C1.01 3.32 0.02 4.64 -1 6 C-2.32 5.34 -3.64 4.68 -5 4 C-4.01 3.01 -3.02 2.02 -2 1 C-1.34 1.33 -0.68 1.66 0 2 C0 1.34 0 0.68 0 0 Z " fill="#F5E9E6" transform="translate(144,81)"/>
<path d="M0 0 C2.31 0 4.62 0 7 0 C5.515 1.98 5.515 1.98 4 4 C4.66 4.33 5.32 4.66 6 5 C4.35 5 2.7 5 1 5 C0.67 3.35 0.34 1.7 0 0 Z " fill="#202020" transform="translate(163,137)"/>
<path d="M0 0 C0.66 0 1.32 0 2 0 C3.26264601 4.29299643 2.62950412 6.87831311 1 11 C-0.36191995 8.2761601 -0.06161289 6.01903173 0 3 C0 2.01 0 1.02 0 0 Z " fill="#F9F1EE" transform="translate(164,91)"/>
</svg>
